<?xml version="1.0" encoding="utf-8"?>
<!-- Generator: Adobe Illustrator 22.0.0, SVG Export Plug-In . SVG Version: 6.00 Build 0)  -->
<svg version="1.1" id="Layer_1" xmlns="http://www.w3.org/2000/svg" xmlns:xlink="http://www.w3.org/1999/xlink" x="0px" y="0px"
	 viewBox="0 0 317.8 35" style="enable-background:new 0 0 317.8 35;" xml:space="preserve">
<style type="text/css">
	.st0{fill:#6F7176;}
	.st1{fill:#1B1D1D;}
	.st2{fill:#EF3B13;}
</style>
<title>paypal-seeklogo.com</title>
<g>
	<path class="st0" d="M10.6,1.6h21.5v6.6H10.4c-1.7,0-2.7,0.8-3.1,2.5v0.5c0,1,0.6,1.8,1.7,2.5c0.3,0.1,0.7,0.2,1.1,0.2H21
		c2.8,0,4.7,0.3,5.7,0.9c2.5,1.1,4.2,2.8,5.1,5.1c0.5,1.4,0.8,2.8,0.8,4.1c0,3.2-1.5,5.9-4.5,8.1c-0.9,0.6-1.9,1-3.1,1.3
		c-0.9,0.2-2.3,0.3-4.3,0.3H0.5l0-6.6h21.8c1.8,0,3-0.9,3.5-2.7l0-0.6c0-1.3-0.6-2.2-1.9-2.9c-0.4-0.2-1-0.4-1.7-0.4H10
		c-3.2,0-5.9-1.4-8-4.2c-0.9-1.5-1.4-3.1-1.4-4.7v-0.9c0-3.3,1.6-5.9,4.8-7.8C6.7,2,8.5,1.6,10.6,1.6z"/>
	<path class="st0" d="M51.5,33.4c-5.1,0-9.4-2.1-12.8-6.3c-0.6-0.8-1.1-1.6-1.4-2.2c-0.4-0.7-0.8-1.7-1.2-2.9
		c-0.4-1.5-0.7-3.5-0.7-6V1.6h6.4v15.1c0,5.1,2.3,8.5,6.9,10.2c1,0.3,1.9,0.5,2.7,0.5c0.8,0,1.7-0.2,2.8-0.5
		c4.6-1.7,6.9-5.1,6.9-10.2V1.6h6.4V16c0,2.5-0.2,4.5-0.7,6c-0.4,1.2-0.8,2.2-1.2,2.9c-0.3,0.6-0.7,1.3-1.4,2.2
		C60.9,31.3,56.7,33.4,51.5,33.4z"/>
	<path class="st0" d="M70.5,1.5H91c3.6,0,6.4,1.1,8.5,3.3c0.9,0.9,1.5,1.7,1.9,2.5c0.8,1.6,1.2,3.2,1.2,4.7v0.9c0,2.3-1,4.6-3,6.8
		c-1.3,1.2-2.5,2-3.5,2.4c2.7,2.9,4,6.6,4,11.4h-6.4V33c0-3.5-1.4-6.3-4.2-8.3c-1.6-1.1-3.7-1.7-6.3-1.7H70.5v-6.2h20.9
		c2.3,0,3.8-1.1,4.6-3.4c0.1-0.5,0.1-0.8,0.2-1.2c0-1.3-0.5-2.4-1.6-3.4c-0.9-0.7-1.9-1.1-2.9-1.1c0-0.1-0.3-0.1-0.9-0.1H70.5V1.5z"
		/>
	<path class="st0" d="M103,1.2h6.2l10.1,19.7l10.2-19.7h6.1l-16.3,32.6L103,1.2z"/>
	<path class="st0" d="M154,1.5h14v6.2h-14.9c-2.7,0-4.7,0.5-6.1,1.5c-1.9,1-3.3,2.9-4.3,5.7c-0.2,1-0.3,1.8-0.3,2.5
		c0,2.4,0.9,4.7,2.7,6.8c1.2,1.1,2.3,1.9,3.3,2.3c1.1,0.5,2.7,0.8,4.7,0.8h15v6.2h-14.3c-3.6,0-6.3-0.4-8.1-1.3
		c-3.9-1.7-6.7-4.5-8.4-8.4c-0.8-1.9-1.2-4-1.2-6.2c0-4.8,1.9-8.8,5.6-12.2c2.5-1.9,4.7-3,6.7-3.3C149.3,1.7,151.2,1.5,154,1.5z
		 M151.3,14.4H168v6.1h-16.7V14.4z"/>
	<path class="st0" d="M183.8,33.4v-5.2c-2.6-0.7-4.9-1.9-7.1-3.5c-1.8-1.6-2.9-2.9-3.4-3.9c-0.7-1.2-1.3-2.4-1.7-3.8
		c-0.5-1.5-0.7-3.5-0.7-6V1.6h6.4v9.6c0,2.8,0.5,5,1.6,6.5c0.2,0.5,0.9,1.3,2.1,2.3c1.8,1.4,3.7,2.1,5.9,2.1c2.1,0,4.1-0.7,5.9-2.1
		c1.2-1.1,1.9-1.8,2.1-2.3c1.1-1.5,1.6-3.7,1.6-6.5V1.6h6.4v9.3c0,2.5-0.2,4.5-0.7,6c-0.4,1.4-1,2.7-1.7,3.8c-0.5,1-1.7,2.4-3.4,3.9
		c-2.2,1.7-4.5,2.9-7.1,3.5v5.2H183.8z"/>
	<path class="st1" d="M238,1.5v6.2h-14.9c-2.9,0-5.2,0.6-6.7,1.9c-0.9,0.5-1.6,1.3-2.3,2.4c-1.1,1.8-1.7,3.7-1.7,5.5
		c0,1.9,0.7,3.8,2,5.7c1.1,1.5,2.8,2.7,5.1,3.5c0.9,0.3,2.1,0.4,3.7,0.4H238v6.1l-0.7,0.1h-13.6c-3.7,0-6.5-0.5-8.2-1.4
		c-3.9-1.7-6.6-4.5-8.3-8.3c-0.9-2-1.3-4.1-1.3-6.3c0-3.8,1.2-7.2,3.6-10.1c1.4-1.5,2.6-2.6,3.8-3.4c2.2-1.3,4.1-2,5.9-2.2
		c0.6-0.2,3.1-0.3,7.4-0.3H238z"/>
	<path class="st1" d="M240.9,1.6h6.4v15.1c0,4.2,1.6,7.3,4.8,9.2c1.4,0.9,3.3,1.4,5.6,1.4H273v6.2h-15c-4,0-7.3-0.8-9.7-2.5
		c-0.7-0.3-1.7-1.2-3.1-2.5c-1.8-2-2.9-4-3.6-6c-0.5-1.5-0.8-3.7-0.8-6.5V1.6z"/>
	<path class="st1" d="M275.9,1.6h6.4v31.9h-6.4V1.6z"/>
	<g>
		<path class="st1" d="M301.3,1.6c4.3,0,8.1,1.6,11.4,4.8c1.7,1.9,2.8,3.5,3.3,4.9c0.8,1.9,1.2,3.8,1.2,5.7v1.1c0,2.4-0.9,5-2.6,7.8
			l-4.5-4.5c0.4-1.8,0.7-3.1,0.7-4.1c0-2.8-1.3-5.4-3.9-7.6c-1.8-1.3-3.8-1.9-5.8-1.9c-2.3,0-4.5,0.9-6.5,2.6
			c-2.1,2.1-3.1,4.5-3.1,7.2c0,2.4,0.9,4.6,2.6,6.6c2.1,2.1,4.4,3.1,7,3.1c0.9,0,2.2-0.2,3.9-0.7l4.6,4.4c-2.8,1.7-5.5,2.5-7.9,2.5
			h-0.8c-4.3,0-8.1-1.7-11.4-5c-2.9-3.2-4.3-6.8-4.3-10.9c0-4.8,2-9,5.9-12.4C294.1,2.8,297.6,1.6,301.3,1.6z"/>
		<polygon class="st2" points="307.9,20.4 308.6,20.4 317.3,29.1 317.3,29.5 313.4,33.4 312.7,33.4 304,24.7 304,24.3 		"/>
	</g>
</g>
</svg>
